<svg width="80" height="160" viewBox="0 0 80 160" xmlns="http://www.w3.org/2000/svg">
<path d="M39 0H40V1H39V0Z" fill="white" fill-opacity="0.25"/>
<path d="M80 0H79V1H80V0Z" fill="white" fill-opacity="0.25"/>
<path d="M80 80H79V81H80V80Z" fill="white" fill-opacity="0.25"/>
<path d="M80 40H79V41H80V40Z" fill="white" fill-opacity="0.25"/>
<path d="M39 40H40V41H39V40Z" fill="white" fill-opacity="0.25"/>
<path d="M40 80H39V81H40V80Z" fill="white" fill-opacity="0.25"/>
<path d="M79 120H80V121H79V120Z" fill="white" fill-opacity="0.25"/>
<path d="M40 120H39V121H40V120Z" fill="white" fill-opacity="0.25"/>
<path d="M19 20H20V21H19V20Z" fill="white" fill-opacity="0.25"/>
<path d="M60 20H59V21H60V20Z" fill="white" fill-opacity="0.25"/>
<path d="M60 100H59V101H60V100Z" fill="white" fill-opacity="0.25"/>
<path d="M60 60H59V61H60V60Z" fill="white" fill-opacity="0.25"/>
<path d="M19 60H20V61H19V60Z" fill="white" fill-opacity="0.25"/>
<path d="M20 100H19V101H20V100Z" fill="white" fill-opacity="0.25"/>
<path d="M59 140H60V141H59V140Z" fill="white" fill-opacity="0.25"/>
<path d="M20 140H19V141H20V140Z" fill="white" fill-opacity="0.25"/>
</svg>
