<svg width="78" height="77" viewBox="0 0 78 77" fill="none" xmlns="http://www.w3.org/2000/svg">
<path d="M39 45C26.8497 45 17 35.1503 17 23M39 45C51.1503 45 61 35.1503 61 23M39 45C39 42.1109 39.569 39.2501 40.6747 36.581C41.7803 33.9118 43.4008 31.4865 45.4437 29.4437C47.4865 27.4008 49.9118 25.7803 52.581 24.6747C55.2501 23.569 58.1109 23 61 23M39 45C39 42.1109 38.431 39.2501 37.3254 36.581C36.2197 33.9118 34.5992 31.4865 32.5564 29.4436C30.5135 27.4008 28.0882 25.7803 25.419 24.6746C22.7499 23.569 19.8891 23 17 23M39 45L69.2105 45.795C73.5453 45.9091 77 49.4559 77 53.7922V63L44.5313 74.9622C40.9611 76.2775 37.0389 76.2775 33.4687 74.9622L1 63V53.7922C1 49.4559 4.45474 45.9091 8.78955 45.795L39 45ZM17 23C17 10.8497 26.8497 1 39 1M17 23C22.8348 23 28.4305 20.6821 32.5563 16.5564C36.6821 12.4306 39 6.83476 39 1M61 23C61 10.8497 51.1503 1 39 1M61 23C58.1109 23 55.2501 22.431 52.581 21.3254C49.9118 20.2197 47.4865 18.5992 45.4437 16.5563C43.4008 14.5135 41.7803 12.0882 40.6747 9.41903C39.569 6.74987 39 3.88908 39 1" stroke="#ffba1a" stroke-width="2"/>
</svg>
