<svg width="78" height="76" viewBox="0 0 78 76" fill="none" xmlns="http://www.w3.org/2000/svg">
<path d="M1.00132 28C1.00132 40.1503 1.00065 50 1.00065 50H34.9994M1.00132 28C1.00132 15.8497 1 6 1 6M1.00132 28H17.0011M77 28C77 40.1503 77 50 77 50H42.9993M77 28C77 15.8497 77 6 77 6M77 28H61.0003M77 6H1M77 6H39.0007M1 6H39.0007M39.0007 50C39.0007 47.1109 39.5697 44.2501 40.6753 41.581C41.7809 38.9118 43.4014 36.4865 45.4442 34.4437C47.4871 32.4008 49.9123 30.7803 52.5814 29.6747C55.2505 28.569 58.1112 28 61.0003 28M39.0007 50C39.0007 47.1109 38.4316 44.2501 37.3261 41.581C36.2205 38.9118 34.6 36.4865 32.5571 34.4436C30.5143 32.4008 28.0891 30.7803 25.4199 29.6746C22.7508 28.569 19.8901 28 17.0011 28M39.0007 50H42.9993M39.0007 50H34.9994M17.0011 28C22.8357 28 28.4314 25.6822 32.5571 21.5564C36.6829 17.4306 39.0007 11.8348 39.0007 6M61.0003 28C58.1112 28 55.2505 27.431 52.5814 26.3254C49.9123 25.2197 47.4871 23.5992 45.4442 21.5563C43.4014 19.5135 41.7809 17.0882 40.6753 14.419C39.5697 11.7499 39.0007 8.88908 39.0007 6M42.9993 50V58C42.9993 60.2091 44.7901 62 46.9993 62H61.0003V70H17.0011V62H30.9994C33.2086 62 34.9994 60.2091 34.9994 58V50" stroke="#ffba1a" stroke-width="2"/>
</svg>
