<svg width="54" height="28" viewBox="0 0 54 28" fill="none" xmlns="http://www.w3.org/2000/svg">
<path d="M1 14C1 6.8203 6.8203 1 14 1H40C47.1797 1 53 6.8203 53 14C53 21.1797 47.1797 27 40 27H14C6.8203 27 1 21.1797 1 14Z" fill="#000000"/>
<path d="M14 14C14 6.8203 19.8203 1 27 1C34.1797 1 40 6.8203 40 14C40 21.1797 34.1797 27 27 27C19.8203 27 14 21.1797 14 14Z" fill="#000000"/>
<path d="M35.0251 14.9896C36.6023 14.3363 38.2928 14 40 14C38.2928 14 36.6023 13.6637 35.0251 13.0104C33.4479 12.3571 32.0148 11.3995 30.8076 10.1924C29.6005 8.98523 28.6429 7.55212 27.9896 5.97488C27.3363 4.39765 27 2.70718 27 1C27 4.44781 25.6304 7.75443 23.1924 10.1924C20.7544 12.6304 17.4478 14 14 14C15.7072 14 17.3977 14.3363 18.9749 14.9896C20.5521 15.6429 21.9852 16.6004 23.1924 17.8076C24.3996 19.0148 25.3571 20.4479 26.0104 22.0251C26.6637 23.6023 27 25.2928 27 27C27 25.2928 27.3363 23.6023 27.9896 22.0251C28.6429 20.4479 29.6005 19.0148 30.8076 17.8076C32.0148 16.6005 33.4479 15.6429 35.0251 14.9896Z" fill="#000000"/>
<path d="M1 14C1 21.1797 6.8203 27 14 27H40C47.1797 27 53 21.1797 53 14M1 14C1 6.8203 6.8203 1 14 1H40C47.1797 1 53 6.8203 53 14M1 14H14M53 14H40M27 27C19.8203 27 14 21.1797 14 14M27 27C34.1797 27 40 21.1797 40 14M27 27C27 25.2928 27.3363 23.6023 27.9896 22.0251C28.6429 20.4479 29.6005 19.0148 30.8076 17.8076C32.0148 16.6005 33.4479 15.6429 35.0251 14.9896C36.6023 14.3363 38.2928 14 40 14M27 27C27 25.2928 26.6637 23.6023 26.0104 22.0251C25.3571 20.4479 24.3996 19.0148 23.1924 17.8076C21.9852 16.6004 20.5521 15.6429 18.9749 14.9896C17.3977 14.3363 15.7072 14 14 14M14 14C14 6.8203 19.8203 1 27 1M14 14C17.4478 14 20.7544 12.6304 23.1924 10.1924C25.6304 7.75443 27 4.44781 27 1M40 14C40 6.8203 34.1797 1 27 1M40 14C38.2928 14 36.6023 13.6637 35.0251 13.0104C33.4479 12.3571 32.0148 11.3995 30.8076 10.1924C29.6005 8.98523 28.6429 7.55212 27.9896 5.97488C27.3363 4.39765 27 2.70718 27 1" stroke="#f4f425" stroke-width="2"/>
</svg>
