<svg width="1920" height="1080" viewBox="0 0 1920 1080" fill="none" xmlns="http://www.w3.org/2000/svg">
<g clip-path="url(#clip0_257_48)">
<rect width="1920" height="1080"/>
<path d="M133.188 1000.94L79.5186 861.125L-6.52014 894.152L-23.2918 850.461L113.16 798.082L183.601 981.586L133.188 1000.94ZM15.5567 1046.09L-82.1058 791.673L-31.6924 772.321L65.97 1026.74L15.5567 1046.09ZM256.426 958.259C243.207 963.333 230.963 965.591 219.694 965.032C208.425 964.474 198.709 961.262 190.545 955.398C182.296 949.311 176.064 940.777 171.849 929.798C167.893 919.491 166.762 909.514 168.457 899.866C170.066 889.993 174.656 880.519 182.226 871.444C190.02 862.282 200.769 853.785 214.473 845.954L267.117 815.335L281.308 852.305L237.481 878.769C230.827 882.865 226.241 887.325 223.722 892.148C221.117 896.747 220.976 902.071 223.298 908.121C225.448 913.722 229.254 917.274 234.715 918.777C240.176 920.28 246.044 919.827 252.317 917.419C260.608 914.236 267.201 909.649 272.099 903.656C276.997 897.662 279.965 890.996 281.003 883.656C282.18 876.006 281.349 868.484 278.511 861.091L252.967 794.545L157.181 831.313L140.41 787.622L286.608 731.501L357.049 915.006L309.997 933.068L298.643 903.492L309.296 897.089C307.015 907.219 303.658 916.22 299.224 924.092C294.705 931.74 288.885 938.344 281.765 943.905C274.731 949.69 266.285 954.475 256.426 958.259ZM463.236 878.872C444.863 885.925 426.691 888.144 408.721 885.531C390.889 882.607 374.808 875.54 360.479 864.331C346.375 853.035 335.839 838.313 328.872 820.164C321.905 802.016 319.927 784.137 322.937 766.529C325.86 748.697 333.125 732.797 344.731 718.831C356.336 704.864 371.326 694.354 389.698 687.301C403.366 682.055 416.928 679.548 430.386 679.781C443.843 680.014 456.351 682.796 467.909 688.128C479.382 693.236 489.104 700.815 497.075 710.866L460.608 746.459C453.945 738.477 445.772 733.259 436.09 730.806C426.632 728.267 416.974 728.889 407.115 732.674C398.377 736.028 391.352 741.167 386.04 748.09C380.952 754.927 377.854 762.929 376.745 772.095C375.861 781.176 377.311 790.645 381.095 800.504C384.879 810.362 390.138 818.369 396.871 824.525C403.829 830.595 411.485 834.469 419.841 836.145C428.421 837.736 437.081 836.855 445.819 833.5C455.902 829.63 463.608 823.587 468.937 815.371C474.267 807.155 476.737 797.852 476.348 787.462L527.393 789.847C528.161 801.892 526.033 813.763 521.012 825.459C515.99 837.156 508.599 847.705 498.84 857.107C488.995 866.285 477.127 873.54 463.236 878.872ZM672.637 793.863L591.645 738.576L579.575 698.092L596.819 612.423L651.938 591.265L630.308 703.683L729.437 772.06L672.637 793.863ZM554.67 839.146L457.008 584.727L507.421 565.375L605.084 819.794L554.67 839.146ZM558.474 753.623L541.702 709.931L604.215 685.935L620.987 729.626L558.474 753.623ZM742.895 844.016L726.123 800.325L784.939 777.747L786.058 726.417L803.193 768.041L643.963 594.326L698.073 573.555L807.374 698.568L787.208 706.309L784.784 540.27L838.894 519.499L837 807.893L742.895 844.016ZM998.31 673.476C980.161 680.443 961.99 682.662 943.796 680.135C925.825 677.521 909.607 670.765 895.14 659.865C880.811 648.656 870.12 633.864 863.068 615.492C855.929 596.895 853.976 578.749 857.21 561.055C860.668 543.275 868.2 527.401 879.805 513.435C891.635 499.382 906.624 488.872 924.773 481.906C942.922 474.939 960.981 472.762 978.952 475.376C996.922 477.99 1013.03 484.789 1027.27 495.775C1041.74 506.674 1052.54 521.422 1059.68 540.019C1066.73 558.392 1068.57 576.581 1065.2 594.585C1061.97 612.279 1054.55 628.109 1042.94 642.076C1031.34 656.043 1016.46 666.51 998.31 673.476ZM980.893 628.104C990.08 624.578 997.217 619.396 1002.3 612.559C1007.62 605.635 1010.71 597.634 1011.6 588.553C1012.71 579.387 1011.37 569.875 1007.59 560.016C1003.8 550.158 998.474 542.305 991.602 536.46C984.869 530.304 977.212 526.43 968.632 524.839C960.19 522.939 951.376 523.751 942.19 527.278C933.003 530.804 925.797 536.141 920.572 543.288C915.26 550.212 912.05 558.256 910.941 567.423C909.97 576.279 911.377 585.636 915.161 595.495C918.946 605.353 924.205 613.361 930.938 619.516C937.895 625.586 945.664 629.417 954.244 631.007C962.824 632.598 971.707 631.631 980.893 628.104ZM1117.4 623.136L1063.73 483.323L1032.81 495.192L1016.04 451.501L1046.96 439.632L1030.96 397.957L1081.37 378.605L1097.37 420.28L1140.39 403.766L1157.16 447.458L1114.14 463.971L1151.04 560.093L1194.06 543.579L1210.83 587.271L1117.4 623.136ZM1310.59 553.602C1292.44 560.569 1274.27 562.788 1256.08 560.261C1238.11 557.647 1221.89 550.891 1207.42 539.991C1193.09 528.782 1182.4 513.99 1175.35 495.618C1168.21 477.021 1166.26 458.875 1169.49 441.181C1172.95 423.401 1180.48 407.527 1192.09 393.561C1203.92 379.508 1218.91 368.998 1237.06 362.031C1255.2 355.065 1273.26 352.888 1291.23 355.502C1309.2 358.116 1325.31 364.915 1339.55 375.901C1354.02 386.8 1364.82 401.548 1371.96 420.145C1379.01 438.518 1380.86 456.707 1377.48 474.711C1374.25 492.405 1366.83 508.235 1355.22 522.202C1343.62 536.169 1328.74 546.636 1310.59 553.602ZM1293.18 508.23C1302.36 504.704 1309.5 499.522 1314.59 492.685C1319.9 485.761 1323 477.759 1323.88 468.679C1324.99 459.513 1323.65 450.001 1319.87 440.142C1316.08 430.284 1310.76 422.431 1303.88 416.586C1297.15 410.43 1289.49 406.556 1280.91 404.965C1272.47 403.064 1263.66 403.877 1254.47 407.404C1245.29 410.93 1238.08 416.267 1232.85 423.414C1227.54 430.338 1224.33 438.382 1223.22 447.549C1222.25 456.405 1223.66 465.762 1227.44 475.621C1231.23 485.479 1236.49 493.486 1243.22 499.642C1250.18 505.712 1257.95 509.543 1266.53 511.133C1275.11 512.724 1283.99 511.757 1293.18 508.23ZM1439.35 499.551L1419.99 449.138L1470.41 429.786L1489.76 480.199L1439.35 499.551ZM1558.99 453.625L1425.36 294.375L1477.46 274.378L1572.65 389.767L1554.37 396.398L1553.08 245.35L1596.77 228.578L1696.54 341.825L1678.52 349.128L1672.05 199.68L1724.48 179.554L1731.4 387.442L1687.71 404.213L1582.18 281.994L1599.66 275.285L1602.68 436.853L1558.99 453.625ZM1805.75 358.901L1752.08 219.088L1721.16 230.957L1704.39 187.266L1735.31 175.397L1719.31 133.722L1769.73 114.37L1785.72 156.045L1828.74 139.531L1845.51 183.223L1802.5 199.736L1839.39 295.858L1882.41 279.344L1899.18 323.036L1805.75 358.901ZM1921.03 314.649L1867.36 174.836L1836.44 186.705L1819.67 143.013L1850.59 131.144L1824.92 64.2625L1914.99 29.6872L1930.47 70.0179L1890.81 85.2414L1901.01 111.792L1940.33 96.6979L1957.1 140.39L1917.78 155.484L1971.45 295.297L1921.03 314.649Z" fill="white"/>
</g>
<defs>
<clipPath id="clip0_257_48">
<rect width="1920" height="1080" fill="white"/>
</clipPath>
</defs>
</svg>
