<svg width="26" height="28" viewBox="0 0 26 28" fill="none" xmlns="http://www.w3.org/2000/svg">
<path d="M22 10H26V8.00001C26 3.58172 22.4183 -1.75781e-07 18 0L5.99989 4.77421e-07L5.99989 4C5.99989 7.31371 8.6862 10 11.9999 10H20V8.00001C20 6.89544 19.1045 6 18 6.00001L11.9999 6C10.8954 6 9.99992 5.10457 9.99992 4H18C20.2091 4 22 5.79087 22 8.00001V10Z" fill="white"/>
<path d="M20.0001 16V12L12.0001 12C7.58176 12 4.00002 8.41829 4.00002 4L4.00002 7.33413e-07L0 1.24543e-06L5.12023e-07 4C1.36037e-06 10.6274 5.37261 16 12.0001 16H16.0001C16.0001 17.1046 15.1046 18 14.0001 18H6.00003L6.00003 22H14.0001C17.3138 22 20.0001 19.3137 20.0001 16Z" fill="white"/>
<path d="M1.99987 28L1.99987 24L13.9999 24C18.4182 24 22 20.4183 22 16L22 12L26 12V16C26 22.6274 20.6274 28 13.9999 28L1.99987 28Z" fill="white"/>
</svg>
