<svg width="52" height="52" viewBox="0 0 52 52" fill="none" xmlns="http://www.w3.org/2000/svg">
<path d="M18 18L6.00001 18V23.9999H1.04908e-06L0 0L5.12133 5.12131C5.68394 5.68392 6.00001 6.44698 6.00001 7.24262V12L18 12V7.24268C18 6.44703 18.3161 5.68397 18.8787 5.12137L24 5.75445e-05L24 24H18V18Z" fill="#fff"/>
<path d="M41.2426 4.70219e-07C40.447 5.04998e-07 39.6839 0.316071 39.1213 0.87868L34 6L28 5.99997L28 21C28 22.6569 29.3431 24 31 24H44.7574C45.553 24 46.3161 23.6839 46.8787 23.1213L52 18H34V6L44.7574 6C45.553 6 46.3161 5.68393 46.8787 5.12132L52 0L41.2426 4.70219e-07Z" fill="#fff"/>
<path d="M6 28H0V52H2.95736C3.75301 52 4.51607 51.6839 5.07868 51.1213L12 44.2L18.9213 51.1213C19.4839 51.6839 20.247 52 21.0426 52H24V48.9574C24 48.1617 23.6839 47.3987 23.1213 46.8361L16.2853 40H16.2L23.1213 33.0787C23.6839 32.5161 24 31.7531 24 30.9574V28.0001H20.9574C20.1617 28.0001 19.3986 28.3161 18.836 28.8787L6 41.7147V28Z" fill="#fff"/>
<path d="M30.9574 52C31.753 52 32.5161 51.6839 33.0787 51.1213L51.1213 33.0787C51.6839 32.5161 52 31.753 52 30.9574V28H48.9574C48.1617 28 47.3986 28.3161 46.836 28.8787L40 35.7147L33.164 28.8787C32.6014 28.3161 31.8383 28 31.0426 28L28 28L28 30.9574C28 31.753 28.3161 32.5161 28.8787 33.0787L35.7574 39.9574L28.8787 46.836C28.3161 47.3986 28 48.1617 28 48.9574V52H30.9574Z" fill="#fff"/>
</svg>
