<svg xmlns="http://www.w3.org/2000/svg" viewBox="0 0 200 93.41"><title>b</title><g id="Camada_2" data-name="Camada 2"><g id="b"><path id="r" d="M200,3.88V19.52a17.32,17.32,0,0,0-7.7-1.69c-6.86,0-11.07,3.85-11.07,12.27V67.76H164.87V4H175.7L177,11.34c3.37-5.78,8.9-8.9,16-8.9A14.36,14.36,0,0,1,200,3.88Z"/><path id="j" d="M129.31,75.46c6.14,0,9.27-2.89,9.27-8.9V0h0l16.36,16.36V65.47c0,16.36-9.15,25.63-25.63,25.63Z"/><path id="m" d="M128.54,28.66v39.1H112.3V28.66c0-7.82-2-10.58-5.89-10.58-4.09,0-6.62,3.12-6.62,9.38v40.3H83.55V28.66c0-7.82-2-10.58-5.9-10.58S71,21.2,71,27.46v40.3H54.8V4H65.5l1.09,6.5c3.24-5.3,8.3-8.06,14.91-8.06C87.76,2.44,92.57,5,95.7,10c3.13-4.93,8.18-7.57,14.56-7.57C121.81,2.44,128.54,11.34,128.54,28.66Z"/><path id="p" d="M46.32,27.7V44.3c0,15-8.3,25-20.7,25A15.72,15.72,0,0,1,16,65.83V93.41h0l-16-16V3.88H11.19l.72,5.65c3.25-3.73,8.54-7,13.71-7C38.14,2.56,46.32,12.66,46.32,27.7Zm-16.73,0c0-6.26-2.28-9.5-6.37-9.5-4.69,0-7.22,3.24-7.22,9.5V44.3c0,6.26,2.53,9.38,7.22,9.38,4.09,0,6.37-3.12,6.37-9.38Z"/></g></g></svg>