<svg xmlns="http://www.w3.org/2000/svg" width="86" height="40" viewBox="0 0 86 40">
  <path fill="#000" d="M20.082,0.008l8.534,8.533-8.533,8.533L11.548,8.541ZM31.541,11.467L40.074,20l-8.533,8.533L23.007,20ZM20.082,22.926l8.534,8.533-8.533,8.533-8.533-8.533ZM8.622,11.467L17.156,20,8.622,28.533,0.089,20ZM43,0.008l8.533,8.533L43,17.074,34.467,8.541Zm0,22.918,8.533,8.533L43,39.992l-8.533-8.533ZM54.459,11.467L62.992,20l-8.534,8.533L45.926,20ZM65.918,0.008l8.533,8.533-8.533,8.533L57.385,8.541ZM77.377,11.467L85.91,20l-8.533,8.533L68.844,20ZM65.918,22.926l8.533,8.533-8.533,8.533-8.534-8.533Z"/>
</svg>