<svg xmlns="http://www.w3.org/2000/svg" viewBox="0 0 200 89.41"><defs><style>.cls-1{fill:#fff;}</style></defs><title>w</title><g id="Camada_2" data-name="Camada 2"><g id="w"><path id="r" class="cls-1" d="M200,1.88V17.52a17.32,17.32,0,0,0-7.7-1.69c-6.86,0-11.07,3.85-11.07,12.27V65.76H164.87V2H175.7L177,9.34c3.37-5.78,8.9-8.9,16-8.9A14.36,14.36,0,0,1,200,1.88Z"/><path id="j" class="cls-1" d="M129.31,73.46c6.14,0,9.27-2.89,9.27-8.9V0h0l16.36,16.36V63.47c0,16.36-9.15,25.63-25.63,25.63Z"/><path id="m" class="cls-1" d="M128.54,26.66v39.1H112.3V26.66c0-7.82-2-10.58-5.89-10.58-4.09,0-6.62,3.12-6.62,9.38v40.3H83.55V26.66c0-7.82-2-10.58-5.9-10.58S71,19.2,71,25.46v40.3H54.8V2H65.5l1.09,6.5C69.83,3.2,74.89.44,81.5.44,87.76.44,92.57,3,95.7,8,98.83,3.08,103.88.44,110.26.44,121.81.44,128.54,9.34,128.54,26.66Z"/><path id="p" class="cls-1" d="M46.32,25.7V42.3c0,15-8.3,25-20.7,25A15.72,15.72,0,0,1,16,63.83V89.41h0l-16-16V1.88H11.19l.72,5.65c3.25-3.73,8.54-7,13.71-7C38.14.56,46.32,10.66,46.32,25.7Zm-16.73,0c0-6.26-2.28-9.5-6.37-9.5-4.69,0-7.22,3.24-7.22,9.5V42.3c0,6.26,2.53,9.38,7.22,9.38,4.09,0,6.37-3.12,6.37-9.38Z"/></g></g></svg>