<svg width="128" height="128" viewBox="0 0 128 128" fill="none" xmlns="http://www.w3.org/2000/svg">
<path d="M103.508 68.8717C111.273 65.6554 119.595 64 128 64C119.595 64 111.273 62.3446 103.508 59.1283C95.7434 55.912 88.6881 51.1978 82.7452 45.2548C76.8022 39.3119 72.088 32.2566 68.8717 24.4917C65.6554 16.7269 64 8.4046 64 0C64 16.9738 57.2571 33.2526 45.2548 45.2549C33.2525 57.2572 16.9738 64 0 64C8.4046 64 16.7269 65.6554 24.4917 68.8717C32.2566 72.088 39.3119 76.8022 45.2548 82.7452C51.1978 88.6881 55.912 95.7434 59.1283 103.508C62.3446 111.273 64 119.595 64 128C64 119.595 65.6554 111.273 68.8717 103.508C72.088 95.7434 76.8022 88.6881 82.7452 82.7452C88.6881 76.8022 95.7434 72.088 103.508 68.8717Z" fill="#fff"/>
</svg>
