<svg width="46" height="24" viewBox="0 0 46 24" fill="none" xmlns="http://www.w3.org/2000/svg">
<path d="M12 23H34M12 23C5.92487 23 1 18.0751 1 12M12 23H23M1 12C1 5.92487 5.92487 1 12 1M1 12H12M45 12C45 18.0751 40.0751 23 34 23M45 12C45 5.92487 40.0751 1 34 1M45 12H34M34 23H23M34 1H12M34 1H23M12 1H23M23 23C16.9249 23 12 18.0751 12 12M23 23C29.0751 23 34 18.0751 34 12M23 23C23 21.5555 23.2845 20.1251 23.8373 18.7905C24.3901 17.4559 25.2004 16.2433 26.2218 15.2218C27.2433 14.2004 28.4559 13.3901 29.7905 12.8373C31.1251 12.2845 32.5555 12 34 12M23 23C23 21.5555 22.7155 20.1251 22.1627 18.7905C21.6099 17.4559 20.7996 16.2433 19.7782 15.2218C18.7567 14.2004 17.5441 13.3901 16.2095 12.8373C14.8749 12.2845 13.4445 12 12 12M12 12C12 5.92487 16.9249 1 23 1M12 12C14.9174 12 17.7153 10.8411 19.7782 8.77818C21.8411 6.71528 23 3.91738 23 1M34 12C34 5.92487 29.0751 1 23 1M34 12C32.5555 12 31.1251 11.7155 29.7905 11.1627C28.4559 10.6099 27.2433 9.79962 26.2218 8.77817C25.2004 7.75673 24.3901 6.5441 23.8373 5.20952C23.2845 3.87494 23 2.44454 23 1" stroke-width="2"/>
</svg>
