<svg width="72" height="72" viewBox="0 0 72 72" fill="none" xmlns="http://www.w3.org/2000/svg">
<path d="M23.2721 35.8721L2.63604 15.236C0.948214 13.5482 4.92148e-07 11.259 3.87811e-07 8.87208L0 3.98994e-07L9.12792 0C11.5149 -1.04337e-07 13.8041 0.948211 15.4919 2.63604L36 23.1442L56.5081 2.63604C58.196 0.948209 60.4851 3.98994e-07 62.8721 3.98994e-07H72V8.87208C72 11.259 71.0518 13.5482 69.364 15.236L15.236 69.364C13.5482 71.0518 11.259 72 8.87208 72H1.73097e-06V62.8721C1.73097e-06 60.4851 0.948213 58.196 2.63604 56.5081L23.2721 35.8721Z" fill="black"/>
</svg>
